<svg width="128" height="128" viewBox="0 0 128 128" fill="none" xmlns="http://www.w3.org/2000/svg">
<path d="M13.6 8L8 120H120L114.4 8H69.6V50H58.4V8H13.6Z" fill="#F6A8AC"/>
<path d="M51.92 14.48H20.08L17.84 55.04H50.8L51.92 14.48Z" fill="#CE6371"/>
<path d="M76.08 14.48H107.92L110.16 55.04H77.2L76.08 14.48Z" fill="#CE6371"/>
<path d="M57.28 120C57.28 114.653 55.156 109.525 51.3753 105.745C47.5945 101.964 42.4668 99.84 37.12 99.84C31.7732 99.84 26.6455 101.964 22.8647 105.745C19.084 109.525 16.96 114.653 16.96 120L57.28 120Z" fill="white"/>
<path d="M111.04 120C111.04 114.653 108.916 109.525 105.135 105.745C101.355 101.964 96.2268 99.84 90.88 99.84C85.5332 99.84 80.4055 101.964 76.6247 105.745C72.844 109.525 70.72 114.653 70.72 120L111.04 120Z" fill="white"/>
<path d="M38.2396 105.44C41.0085 105.44 43.6963 106.229 46.0023 107.682C43.564 107.724 41.6001 109.712 41.5999 112.16C41.5999 114.634 43.6061 116.64 46.0804 116.64C48.5288 116.64 50.5159 114.676 50.5569 112.237C52.0103 114.543 52.8 117.23 52.8001 120H23.68C23.6801 116.138 25.2142 112.435 27.9446 109.705C30.6751 106.974 34.3782 105.44 38.2396 105.44Z" fill="black"/>
<path d="M89.7596 105.44C92.5285 105.44 95.2163 106.229 97.5223 107.682C95.084 107.724 93.1201 109.712 93.1199 112.16C93.1199 114.634 95.1262 116.64 97.6004 116.64C100.049 116.64 102.036 114.675 102.077 112.237C103.53 114.543 104.32 117.23 104.32 120H75.2C75.2001 116.138 76.7342 112.435 79.4647 109.705C82.1951 106.974 85.8982 105.44 89.7596 105.44Z" fill="black"/>
</svg>
